<svg width="28" height="28" viewBox="0 0 28 28" fill="none" xmlns="http://www.w3.org/2000/svg">
<rect width="28" height="28" rx="14" fill="#FECE23"/>
<g clip-path="url(#clip0_4519_2101)">
<path fill-rule="evenodd" clip-rule="evenodd" d="M15.626 6.21493C15.9216 6.50517 15.9258 6.98003 15.6356 7.27554L8.64868 14.3892C7.86779 15.1842 7.45313 16.2685 7.50422 17.3817L7.51008 17.5094C7.60159 19.5033 9.19527 21.1002 11.189 21.1956C12.2901 21.2484 13.3613 20.8288 14.1337 20.0423L20.4699 13.5905C20.9223 13.1298 21.155 12.4971 21.1088 11.8531L21.097 11.6878C21.0172 10.5745 20.1334 9.688 19.0204 9.60482L18.9802 9.60181C18.3191 9.5524 17.6698 9.79707 17.2057 10.2705L11.7928 15.7926C11.6725 15.9153 11.5988 16.076 11.5842 16.2472L11.5802 16.2937C11.5433 16.727 11.9064 17.0887 12.3395 17.0502C12.5054 17.0355 12.6606 16.9621 12.7772 16.8432L16.621 12.9248C16.9111 12.6291 17.386 12.6245 17.6817 12.9146C17.9774 13.2047 17.9819 13.6795 17.6918 13.9752L13.848 17.8936C13.4814 18.2673 12.9936 18.498 12.4722 18.5443C11.1107 18.6653 9.9697 17.5284 10.0856 16.1665L10.0896 16.12C10.1338 15.6013 10.3572 15.1143 10.7216 14.7425L16.1345 9.2205C16.908 8.43142 17.9901 8.02363 19.092 8.10598L19.1322 8.10899C20.9872 8.24763 22.4602 9.72518 22.5931 11.5806L22.605 11.746C22.6819 12.8192 22.294 13.8738 21.5401 14.6415L15.2039 21.0933C14.132 22.1848 12.6453 22.7671 11.1173 22.6939C8.35036 22.5614 6.13865 20.3453 6.01166 17.5782L6.0058 17.4505C5.93559 15.9207 6.50542 14.4307 7.57853 13.3381L14.5654 6.22446C14.8557 5.92894 15.3305 5.92468 15.626 6.21493Z" fill="white"/>
</g>
<defs>
<clipPath id="clip0_4519_2101">
<rect width="24" height="24" fill="white" transform="matrix(0 -1 1 0 2 26)"/>
</clipPath>
</defs>
</svg>
