<svg width="29" height="28" viewBox="0 0 29 28" fill="none" xmlns="http://www.w3.org/2000/svg">
<g clip-path="url(#clip0_2755_549)">
<path d="M7.28841 11.6667C6.00508 11.6667 4.95508 12.7167 4.95508 14C4.95508 15.2834 6.00508 16.3334 7.28841 16.3334C8.57175 16.3334 9.62175 15.2834 9.62175 14C9.62175 12.7167 8.57175 11.6667 7.28841 11.6667ZM21.2884 11.6667C20.0051 11.6667 18.9551 12.7167 18.9551 14C18.9551 15.2834 20.0051 16.3334 21.2884 16.3334C22.5717 16.3334 23.6217 15.2834 23.6217 14C23.6217 12.7167 22.5717 11.6667 21.2884 11.6667ZM14.2884 11.6667C13.0051 11.6667 11.9551 12.7167 11.9551 14C11.9551 15.2834 13.0051 16.3334 14.2884 16.3334C15.5717 16.3334 16.6217 15.2834 16.6217 14C16.6217 12.7167 15.5717 11.6667 14.2884 11.6667Z" fill="#787878"/>
</g>
<defs>
<clipPath id="clip0_2755_549">
<rect width="28" height="28" fill="white" transform="translate(0.288086)"/>
</clipPath>
</defs>
</svg>
