<svg width="32" height="32" viewBox="0 0 32 32" fill="none" xmlns="http://www.w3.org/2000/svg">
<g clip-path="url(#clip0_2584_4014)">
<path fill-rule="evenodd" clip-rule="evenodd" d="M18.1677 5.61982C18.5618 6.00682 18.5674 6.63996 18.1804 7.03398L8.86458 16.5188C7.8234 17.5789 7.27052 19.0246 7.33864 20.5089L7.34645 20.6791C7.46846 23.3377 9.59336 25.4668 12.2517 25.5941C13.7197 25.6644 15.1481 25.105 16.1779 24.0563L24.6262 15.4539C25.2293 14.8397 25.5396 13.9961 25.4781 13.1375L25.4623 12.917C25.356 11.4326 24.1776 10.2506 22.6936 10.1397L22.6399 10.1357C21.7584 10.0698 20.8928 10.396 20.274 11.0273L13.0568 18.39C12.8964 18.5536 12.798 18.768 12.7786 18.9962L12.7733 19.0582C12.7241 19.636 13.2081 20.1182 13.7857 20.0669C14.0068 20.0472 14.2138 19.9494 14.3693 19.7909L19.4944 14.5663C19.8812 14.172 20.5143 14.166 20.9086 14.5527C21.3028 14.9395 21.3089 15.5726 20.9221 15.9669L15.797 21.1914C15.3082 21.6897 14.6578 21.9973 13.9626 22.059C12.1473 22.2203 10.6259 20.7045 10.7805 18.8886L10.7858 18.8266C10.8447 18.135 11.1427 17.4856 11.6285 16.99L18.8457 9.62725C19.877 8.57515 21.3198 8.03143 22.789 8.14123L22.8426 8.14524C25.316 8.33009 27.28 10.3002 27.4572 12.7741L27.473 12.9945C27.5755 14.4255 27.0584 15.8316 26.0531 16.8552L17.6048 25.4577C16.1756 26.913 14.1934 27.6894 12.156 27.5918C8.46682 27.4152 5.51787 24.4604 5.34855 20.7708L5.34074 20.6005C5.24713 18.5608 6.0069 16.5741 7.43771 15.1174L16.7536 5.63253C17.1406 5.23851 17.7737 5.23282 18.1677 5.61982Z" fill="#AAAAAA"/>
</g>
<defs>
<clipPath id="clip0_2584_4014">
<rect width="32" height="32" fill="white" transform="matrix(0 -1 1 0 0 32)"/>
</clipPath>
</defs>
</svg>
