<svg width="36" height="36" viewBox="0 0 36 36" fill="none" xmlns="http://www.w3.org/2000/svg">
<g clip-path="url(#clip0_2912_871)">
<circle cx="18" cy="18" r="18" fill="#FDF2CD"/>
<path fill-rule="evenodd" clip-rule="evenodd" d="M15 14.25C15 13.4544 15.3161 12.6913 15.8787 12.1287C16.4413 11.5661 17.2044 11.25 18 11.25C18.7956 11.25 19.5587 11.5661 20.1213 12.1287C20.6839 12.6913 21 13.4544 21 14.25C21 15.0456 20.6839 15.8087 20.1213 16.3713C19.5587 16.9339 18.7956 17.25 18 17.25C17.2044 17.25 16.4413 16.9339 15.8787 16.3713C15.3161 15.8087 15 15.0456 15 14.25ZM15 18.75C14.0054 18.75 13.0516 19.1451 12.3483 19.8483C11.6451 20.5516 11.25 21.5054 11.25 22.5C11.25 23.0967 11.4871 23.669 11.909 24.091C12.331 24.5129 12.9033 24.75 13.5 24.75H22.5C23.0967 24.75 23.669 24.5129 24.091 24.091C24.5129 23.669 24.75 23.0967 24.75 22.5C24.75 21.5054 24.3549 20.5516 23.6517 19.8483C22.9484 19.1451 21.9946 18.75 21 18.75H15Z" fill="#E6E6E6"/>
</g>
<defs>
<clipPath id="clip0_2912_871">
<path d="M0 18C0 8.05888 8.05888 0 18 0C27.9411 0 36 8.05888 36 18C36 27.9411 27.9411 36 18 36C8.05888 36 0 27.9411 0 18Z" fill="white"/>
</clipPath>
</defs>
</svg>
