<svg width="16" height="16" viewBox="0 0 16 16" fill="none" xmlns="http://www.w3.org/2000/svg">
<g clip-path="url(#clip0_7763_1767)">
<circle cx="8" cy="8" r="8" fill="#FDF2CD"/>
<path fill-rule="evenodd" clip-rule="evenodd" d="M6.66667 6.33333C6.66667 5.97971 6.80714 5.64057 7.05719 5.39052C7.30724 5.14048 7.64638 5 8 5C8.35362 5 8.69276 5.14048 8.94281 5.39052C9.19286 5.64057 9.33333 5.97971 9.33333 6.33333C9.33333 6.68696 9.19286 7.02609 8.94281 7.27614C8.69276 7.52619 8.35362 7.66667 8 7.66667C7.64638 7.66667 7.30724 7.52619 7.05719 7.27614C6.80714 7.02609 6.66667 6.68696 6.66667 6.33333ZM6.66667 8.33333C6.22464 8.33333 5.80072 8.50893 5.48816 8.82149C5.17559 9.13405 5 9.55797 5 10C5 10.2652 5.10536 10.5196 5.29289 10.7071C5.48043 10.8946 5.73478 11 6 11H10C10.2652 11 10.5196 10.8946 10.7071 10.7071C10.8946 10.5196 11 10.2652 11 10C11 9.55797 10.8244 9.13405 10.5118 8.82149C10.1993 8.50893 9.77536 8.33333 9.33333 8.33333H6.66667Z" fill="#E6E6E6"/>
</g>
<defs>
<clipPath id="clip0_7763_1767">
<path d="M0 8C0 3.58172 3.58172 0 8 0V0C12.4183 0 16 3.58172 16 8V8C16 12.4183 12.4183 16 8 16V16C3.58172 16 0 12.4183 0 8V8Z" fill="white"/>
</clipPath>
</defs>
</svg>
