<svg width="28" height="28" viewBox="0 0 28 28" fill="none" xmlns="http://www.w3.org/2000/svg">
<path d="M4.66699 7.33341C4.66699 5.86066 5.8609 4.66675 7.33366 4.66675H12.667V12.6667H4.66699V7.33341Z" fill="#AAAAAA"/>
<path d="M15.3337 4.66675H20.667C22.1398 4.66675 23.3337 5.86066 23.3337 7.33341V12.6667H15.3337V4.66675Z" fill="#AAAAAA"/>
<path d="M4.66699 15.3334H12.667V23.3334H7.33366C5.8609 23.3334 4.66699 22.1395 4.66699 20.6667V15.3334Z" fill="#AAAAAA"/>
<path d="M15.3337 19.3334C15.3337 17.1243 17.1245 15.3334 19.3337 15.3334C21.5428 15.3334 23.3337 17.1243 23.3337 19.3334C23.3337 21.5426 21.5428 23.3334 19.3337 23.3334C17.1245 23.3334 15.3337 21.5426 15.3337 19.3334Z" fill="#AAAAAA"/>
</svg>
