<svg width="40" height="40" viewBox="0 0 40 40" fill="none" xmlns="http://www.w3.org/2000/svg">
<path d="M18.1297 5L16.2594 9.45137C15.8853 9.56359 15.5486 9.75062 15.212 9.93766L10.7606 8.06733L8.06733 10.7606L9.93766 15.212C9.75062 15.586 9.601 15.8853 9.45137 16.2594L5 18.1297V21.8703L9.45137 23.7406C9.601 24.1147 9.75062 24.414 9.93766 24.788L8.06733 29.2394L10.7606 31.9327L15.212 30.0623C15.5486 30.212 15.8853 30.399 16.2594 30.5486L18.1297 35H21.8703L23.7406 30.5486C24.0773 30.399 24.4514 30.2494 24.788 30.0623L29.2394 31.9327L31.9327 29.2394L30.0623 24.788C30.212 24.4514 30.399 24.0773 30.5486 23.7406L35 21.8703V18.1297L30.5486 16.2594C30.4364 15.9227 30.2494 15.5486 30.0623 15.212L31.9327 10.7606L29.2394 8.06733L24.788 9.93766C24.4514 9.78803 24.0773 9.601 23.7406 9.45137L21.8703 5L18.1297 5ZM20 14.3516C23.1047 14.3516 25.611 16.8579 25.611 19.9626C25.611 23.0673 23.1047 25.5736 20 25.5736C16.8953 25.5736 14.389 23.0673 14.389 19.9626C14.389 16.8579 16.8953 14.3516 20 14.3516Z" fill="#020202"/>
</svg>
