<svg width="40" height="40" viewBox="0 0 40 40" fill="none" xmlns="http://www.w3.org/2000/svg">
<g clip-path="url(#clip0_341_2709)">
<path d="M15.8333 14.5833C15.8333 13.893 16.393 13.3333 17.0833 13.3333C17.7737 13.3333 18.3333 13.893 18.3333 14.5833V30.4167C18.3333 31.107 17.7737 31.6667 17.0833 31.6667C16.393 31.6667 15.8333 31.107 15.8333 30.4167V14.5833Z" fill="black"/>
<path d="M22.9167 13.3333C22.2263 13.3333 21.6667 13.893 21.6667 14.5833V30.4167C21.6667 31.107 22.2263 31.6667 22.9167 31.6667C23.607 31.6667 24.1667 31.107 24.1667 30.4167V14.5833C24.1667 13.893 23.607 13.3333 22.9167 13.3333Z" fill="black"/>
<path fill-rule="evenodd" clip-rule="evenodd" d="M27.6389 8.33334L26.5891 4.55394C26.3887 3.83257 25.7319 3.33334 24.9832 3.33334H15.0168C14.2681 3.33334 13.6113 3.83257 13.4109 4.55394L12.3611 8.33334H6.25C5.55964 8.33334 5 8.89299 5 9.58334C5 10.2737 5.55964 10.8333 6.25 10.8333H8.5049L10.1712 35.1141C10.2312 35.9883 10.9578 36.6667 11.834 36.6667H28.166C29.0422 36.6667 29.7688 35.9883 29.8288 35.1141L31.4951 10.8333H33.75C34.4404 10.8333 35 10.2737 35 9.58334C35 8.89299 34.4404 8.33334 33.75 8.33334H27.6389ZM15.6502 5.83334L14.9558 8.33334H25.0442L24.3498 5.83334H15.6502ZM28.9892 10.8333H11.0108L12.6121 34.1667H27.3879L28.9892 10.8333Z" fill="black"/>
</g>
<defs>
<clipPath id="clip0_341_2709">
<rect width="40" height="40" fill="white"/>
</clipPath>
</defs>
</svg>
