<svg width="28" height="28" viewBox="0 0 28 28" fill="none" xmlns="http://www.w3.org/2000/svg">
<path d="M4.66675 7.33366C4.66675 5.8609 5.86066 4.66699 7.33341 4.66699H12.6667V12.667H4.66675V7.33366Z" fill="#333333"/>
<path d="M15.3334 4.66699H20.6667C22.1395 4.66699 23.3334 5.8609 23.3334 7.33366V12.667H15.3334V4.66699Z" fill="#333333"/>
<path d="M4.66675 15.3337H12.6667V23.3337H7.33341C5.86066 23.3337 4.66675 22.1398 4.66675 20.667V15.3337Z" fill="#333333"/>
<path d="M15.3334 19.3337C15.3334 17.1245 17.1243 15.3337 19.3334 15.3337C21.5426 15.3337 23.3334 17.1245 23.3334 19.3337C23.3334 21.5428 21.5426 23.3337 19.3334 23.3337C17.1243 23.3337 15.3334 21.5428 15.3334 19.3337Z" fill="#333333"/>
</svg>
