<svg width="24" height="24" viewBox="0 0 24 24" fill="none" xmlns="http://www.w3.org/2000/svg">
<path fill-rule="evenodd" clip-rule="evenodd" d="M17.3237 3.70696C17.7142 3.31643 18.3474 3.31643 18.7379 3.70696L21.3843 6.3534C21.7749 6.74393 21.7749 7.37709 21.3843 7.76762L11.4142 17.7377L6 19.0913L7.35355 13.6771L17.3237 3.70696ZM8.43711 15.5275L9.56378 16.6542L8.06155 17.0297L8.43711 15.5275ZM11.0308 15.9999L9.09144 14.0605L18.0308 5.12117L19.9701 7.06051L11.0308 15.9999Z" fill="black"/>
<path d="M3.5 9.00012C3.5 8.17169 4.17157 7.50012 5 7.50012H12.1163L13.6163 6.00012H5C3.34315 6.00012 2 7.34326 2 9.00012V20.0001C2 21.657 3.34315 23.0001 5 23.0001H16C17.6569 23.0001 19 21.657 19 20.0001V11.5662L17.5 13.0662V20.0001C17.5 20.8285 16.8284 21.5001 16 21.5001H5C4.17157 21.5001 3.5 20.8285 3.5 20.0001V9.00012Z" fill="black"/>
</svg>
