<svg width="259" height="321" viewBox="0 0 259 321" fill="none" xmlns="http://www.w3.org/2000/svg">
<path d="M177.106 59.4093H175.735V21.7793C175.735 16.0031 173.446 10.4634 169.372 6.37901C165.298 2.29461 159.772 7.28846e-06 154.011 0H74.486C71.6331 -7.66873e-06 68.8081 0.563323 66.1723 1.65783C63.5365 2.75233 61.1416 4.35657 59.1243 6.37896C57.1069 8.40135 55.5067 10.8023 54.4149 13.4446C53.3232 16.087 52.7612 18.9191 52.7612 21.7792V228.221C52.7612 231.081 53.3232 233.913 54.4149 236.555C55.5067 239.198 57.1069 241.599 59.1242 243.621C61.1416 245.643 63.5365 247.248 66.1722 248.342C68.808 249.437 71.633 250 74.4859 250H154.011C159.772 250 165.298 247.705 169.372 243.621C173.446 239.537 175.735 233.997 175.735 228.221V86.1951H177.105L177.106 59.4093Z" fill="#3F3D56"/>
<path d="M154.887 5.66626H144.507C144.984 6.83957 145.166 8.11257 145.037 9.37312C144.908 10.6337 144.472 11.8431 143.767 12.8948C143.062 13.9465 142.11 14.8083 140.994 15.4042C139.879 16 138.634 16.3118 137.37 16.3119H91.8116C90.5476 16.3118 89.303 16 88.1875 15.4042C87.072 14.8083 86.1198 13.9465 85.4147 12.8948C84.7097 11.8431 84.2735 10.6337 84.1445 9.37312C84.0155 8.11258 84.1978 6.83957 84.6751 5.66626H74.9796C70.6768 5.66626 66.5502 7.37983 63.5077 10.43C60.4652 13.4802 58.7559 17.6171 58.7559 21.9307V228.069C58.7559 230.205 59.1755 232.32 59.9908 234.294C60.8061 236.267 62.0012 238.06 63.5077 239.57C65.0142 241.08 66.8027 242.278 68.771 243.096C70.7394 243.913 72.8491 244.334 74.9796 244.334H154.887C157.018 244.334 159.127 243.913 161.096 243.096C163.064 242.278 164.853 241.08 166.359 239.57C167.866 238.06 169.061 236.267 169.876 234.294C170.691 232.32 171.111 230.205 171.111 228.069V21.9307C171.111 19.7949 170.691 17.6799 169.876 15.7066C169.061 13.7333 167.866 11.9403 166.359 10.43C164.853 8.91971 163.064 7.72168 161.096 6.90431C159.127 6.08695 157.018 5.66626 154.887 5.66626Z" fill="white"/>
<path d="M121.486 95.0523C129.434 95.0523 135.877 94.4371 135.877 93.6782C135.877 92.9194 129.434 92.3042 121.486 92.3042C113.538 92.3042 107.095 92.9194 107.095 93.6782C107.095 94.4371 113.538 95.0523 121.486 95.0523Z" fill="#E6E6E6"/>
<path d="M259 45.3059C259 43.0968 257.209 41.3059 255 41.3059H120.513C118.304 41.3059 116.513 43.0968 116.513 45.3059V73.9081C116.513 76.1173 118.304 77.9081 120.513 77.9081H121.532V89.312L132.907 77.9081H255C257.209 77.9081 259 76.1173 259 73.9081V45.3059Z" fill="#FECE23"/>
<path d="M241.153 166.816C241.153 164.607 239.362 162.816 237.153 162.816H123.398C121.189 162.816 119.398 164.607 119.398 166.816V196.621C119.398 198.83 121.195 200.621 123.404 200.621V209.723L132.484 200.621H237.153C239.362 200.621 241.153 198.83 241.153 196.621V166.816Z" fill="#FECE23"/>
<path d="M142.596 175.912V182.215H141.311V175.912H142.596ZM142.609 182.803V185.865H135.855V187H143.02V188.039H134.598V184.881H141.324V183.828H134.557V182.803H142.609ZM136.908 177.184C136.895 178.824 138.084 180.314 139.957 180.902L139.314 181.914C137.886 181.449 136.812 180.479 136.266 179.234C135.705 180.574 134.611 181.641 133.148 182.146L132.492 181.121C134.406 180.479 135.582 178.879 135.582 177.184V176.24H136.908V177.184ZM154.723 175.912V188.189H153.424V175.912H154.723ZM150.977 177.02V181.49H146.574V184.17C148.557 184.163 150.293 184.074 152.344 183.732L152.467 184.799C150.293 185.168 148.447 185.25 146.287 185.25H145.248V180.451H149.65V178.072H145.234V177.02H150.977ZM166.467 176.459V177.539C166.467 178.701 166.467 179.932 166.125 181.6L164.84 181.49C164.977 180.827 165.065 180.239 165.113 179.686L157.826 180.027L157.648 178.934L165.168 178.729C165.182 178.312 165.182 177.922 165.182 177.539V177.512H157.963V176.459H166.467ZM167.807 182.352V183.391H156.664V182.352H161.08V180.629H162.393V182.352H167.807ZM166.727 186.918V187.971H158.045V184.334H159.344V186.918H166.727ZM173.918 176.555V178.086H176.283V176.555H177.486V181.736H172.688V176.555H173.918ZM173.918 180.711H176.283V179.07H173.918V180.711ZM182.613 175.926V182.297H181.383V179.617H179.947V182.174H178.744V176.145H179.947V178.564H181.383V175.926H182.613ZM182.613 182.803V185.824H175.723V187H183.037V188.039H174.424V184.867H181.328V183.814H174.396V182.803H182.613ZM194.439 175.912V188.189H193.141V175.912H194.439ZM190.693 177.02V181.49H186.291V184.17C188.273 184.163 190.01 184.074 192.061 183.732L192.184 184.799C190.01 185.168 188.164 185.25 186.004 185.25H184.965V180.451H189.367V178.072H184.951V177.02H190.693ZM204.516 178.277C204.516 179.439 205.609 180.438 207.4 180.82L206.867 181.832C205.459 181.518 204.427 180.813 203.887 179.877C203.36 180.896 202.308 181.661 200.852 181.996L200.305 180.984C202.109 180.602 203.217 179.494 203.217 178.277H200.578V177.252H203.217V175.939H204.516V177.252H207.141V178.277H204.516ZM209.971 175.926V188.162H208.686V175.926H209.971ZM199.771 182.748C202.096 182.748 205.172 182.734 207.838 182.393L207.934 183.336C206.812 183.521 205.657 183.637 204.529 183.705V187.793H203.23V183.773C202.055 183.821 200.934 183.828 199.949 183.828L199.771 182.748ZM215.275 176.473C216.889 176.459 218.133 177.396 218.406 178.77H220.799V175.912H222.098V182.488H220.799V179.836H218.42C218.153 181.244 216.902 182.188 215.275 182.188C213.402 182.188 212.062 181.012 212.062 179.316C212.062 177.648 213.402 176.459 215.275 176.473ZM215.275 177.553C214.113 177.553 213.307 178.264 213.307 179.316C213.307 180.369 214.113 181.094 215.275 181.094C216.41 181.094 217.217 180.369 217.217 179.316C217.217 178.264 216.41 177.553 215.275 177.553ZM215.398 183.076V184.498H220.799V183.076H222.098V188.012H214.113V183.076H215.398ZM215.398 186.945H220.799V185.523H215.398V186.945ZM226.24 177.102L226.117 184.143H224.764L224.641 177.102H226.24ZM225.447 187.096C224.914 187.096 224.463 186.658 224.477 186.125C224.463 185.592 224.914 185.154 225.447 185.154C225.967 185.154 226.418 185.592 226.418 186.125C226.418 186.658 225.967 187.096 225.447 187.096Z" fill="white"/>
<path d="M123.367 214.306C129.711 214.306 134.855 213.815 134.855 213.209C134.855 212.603 129.711 212.112 123.367 212.112C117.023 212.112 111.879 212.603 111.879 213.209C111.879 213.815 117.023 214.306 123.367 214.306Z" fill="#E6E6E6"/>
<path d="M91.7385 145.892C99.6866 145.892 106.13 145.277 106.13 144.518C106.13 143.759 99.6866 143.144 91.7385 143.144C83.7904 143.144 77.3472 143.759 77.3472 144.518C77.3472 145.277 83.7904 145.892 91.7385 145.892Z" fill="#E6E6E6"/>
<path d="M0 107C0 104.791 1.79086 103 4 103H93C95.2091 103 97 104.791 97 107V129.807C97 131.752 95.4227 133.329 93.4771 133.329V141L85.4924 133.329H4C1.79086 133.329 0 131.539 0 129.329V107Z" fill="#FECE23"/>
<path d="M24.9648 111.912V124.162H23.7207V117.832H22.1348V123.533H20.9453V112.158H22.1348V116.766H23.7207V111.912H24.9648ZM19.4551 113.389V114.441H16.1602V120.115C17.6641 120.102 18.7988 120.033 20.1113 119.787L20.207 120.854C18.7305 121.154 17.4727 121.209 15.6816 121.223H14.8613V113.389H19.4551ZM36.6816 111.912V124.162H35.3828V111.912H36.6816ZM26.6191 120.826C27.624 120.819 28.7793 120.812 29.9824 120.771V119.555C28.5469 119.37 27.6172 118.529 27.6309 117.326C27.6172 115.945 28.8203 115.029 30.5977 115.029C32.3887 115.029 33.6191 115.945 33.6191 117.326C33.6191 118.516 32.6895 119.35 31.2676 119.541V120.73C32.4023 120.683 33.5508 120.594 34.6309 120.457L34.7266 121.428C32.0059 121.879 29.0391 121.906 26.7969 121.906L26.6191 120.826ZM34.3574 113.375V114.414H26.8789V113.375H29.9824V111.939H31.2812V113.375H34.3574ZM30.5977 116.041C29.5723 116.041 28.8477 116.547 28.8613 117.326C28.8477 118.105 29.5723 118.584 30.5977 118.584C31.6504 118.584 32.375 118.105 32.375 117.326C32.375 116.547 31.6504 116.041 30.5977 116.041ZM53.5117 116.725V117.791H51.6113V124.148H50.3125V111.912H51.6113V116.725H53.5117ZM43.8184 113.102V119.992C45.5273 119.992 47.3115 119.849 49.2598 119.445L49.4102 120.539C47.3184 120.963 45.377 121.072 43.5449 121.072H42.5332V113.102H43.8184ZM63.7109 111.912V116.793H65.6113V117.873H63.7109V124.148H62.4121V111.912H63.7109ZM60.5117 113.197C60.498 116.738 58.9395 119.896 54.9062 121.893L54.1816 120.881C57.251 119.35 58.9189 117.135 59.1855 114.277H54.7969V113.197H60.5117ZM77.4785 121.551V122.631H66.2676V121.551H68.9473V118.352C67.9424 117.798 67.334 116.916 67.334 115.822C67.334 113.895 69.2207 112.623 71.8457 112.623C74.4844 112.623 76.3711 113.895 76.3711 115.822C76.3711 116.902 75.7832 117.771 74.7988 118.324V121.551H77.4785ZM71.8457 113.662C69.918 113.662 68.5918 114.496 68.5918 115.822C68.5918 117.135 69.918 117.996 71.8457 117.996C73.7598 117.996 75.1133 117.135 75.1133 115.822C75.1133 114.496 73.7598 113.662 71.8457 113.662ZM70.2324 121.551H73.4863V118.816C72.9873 118.946 72.4336 119.008 71.8457 119.008C71.2715 119.008 70.7246 118.946 70.2324 118.83V121.551ZM80.623 113.102L80.5 120.143H79.1465L79.0234 113.102H80.623ZM79.8301 123.096C79.2969 123.096 78.8457 122.658 78.8594 122.125C78.8457 121.592 79.2969 121.154 79.8301 121.154C80.3496 121.154 80.8008 121.592 80.8008 122.125C80.8008 122.658 80.3496 123.096 79.8301 123.096Z" fill="white"/>
<path d="M142.635 55.1016V65H141.117V56.6055H141.062L138.697 58.1504V56.7148L141.158 55.1016H142.635ZM152.041 55.1562V56.1953H144.74V55.1562H147.748V53.8574H149.047V55.1562H152.041ZM148.391 56.7422C150.154 56.7559 151.357 57.6309 151.357 58.9707C151.357 60.3105 150.154 61.1992 148.391 61.1992C146.613 61.1992 145.41 60.3105 145.41 58.9707C145.41 57.6309 146.613 56.7559 148.391 56.7422ZM148.391 57.7402C147.352 57.7402 146.654 58.2188 146.668 58.9707C146.654 59.7363 147.352 60.1875 148.391 60.1875C149.43 60.1875 150.127 59.7363 150.141 58.9707C150.127 58.2188 149.43 57.7402 148.391 57.7402ZM154.352 53.9121V57.2344H156.129V58.3145H154.352V61.5684H153.053V53.9121H154.352ZM154.352 62.1973V66.1621H153.053V63.25H146.258V62.1973H154.352ZM167.039 53.9258V62.9766H165.74V58.8066H162.377V57.7676H165.74V56.4824H162.377V55.4434H165.74V53.9258H167.039ZM167.354 64.8496V65.9023H159.055V62.1836H160.367V64.8496H167.354ZM158.836 54.7734V60.1328C160.463 60.1328 162.008 60.0303 163.758 59.709L163.895 60.7754C161.953 61.1445 160.299 61.2129 158.494 61.2266H157.551V54.7734H158.836ZM182.857 53.9121V66.1621H181.613V53.9121H182.857ZM180.369 54.1719V65.5469H179.139V59.3125H177.238V58.2461H179.139V54.1719H180.369ZM176.035 57.3301C176.035 59.4219 176.883 61.5137 178.605 62.5117L177.826 63.4688C176.657 62.7715 175.851 61.5342 175.434 60.0508C174.989 61.6504 174.155 63.0107 172.959 63.7559L172.166 62.7852C173.902 61.7324 174.791 59.5039 174.791 57.3301V56.3457H172.535V55.293H178.141V56.3457H176.035V57.3301ZM195.613 60.8164V61.8691H190.637V66.1484H189.365V61.8691H184.443V60.8164H195.613ZM194.561 54.6367V55.6758H190.773C190.794 57.1934 192.681 58.5469 194.998 58.8613L194.52 59.8867C192.51 59.5723 190.773 58.5811 190.035 57.1797C189.276 58.5811 187.547 59.5723 185.564 59.8867L185.072 58.8613C187.362 58.5469 189.249 57.1934 189.297 55.6758H185.482V54.6367H194.561ZM206.469 59.5586V60.5977H202.764V63.5918H207.754V64.6582H196.543V63.5918H201.479V60.5977H197.938V54.8555H206.359V55.9082H199.236V59.5586H206.469ZM218.186 53.9121V58.793H220.086V59.873H218.186V66.1484H216.887V53.9121H218.186ZM214.986 55.1973C214.973 58.7383 213.414 61.8965 209.381 63.8926L208.656 62.8809C211.726 61.3496 213.394 59.1348 213.66 56.2773H209.271V55.1973H214.986ZM231.953 63.5508V64.6309H220.742V63.5508H223.422V60.3516C222.417 59.7979 221.809 58.916 221.809 57.8223C221.809 55.8945 223.695 54.623 226.32 54.623C228.959 54.623 230.846 55.8945 230.846 57.8223C230.846 58.9023 230.258 59.7705 229.273 60.3242V63.5508H231.953ZM226.32 55.6621C224.393 55.6621 223.066 56.4961 223.066 57.8223C223.066 59.1348 224.393 59.9961 226.32 59.9961C228.234 59.9961 229.588 59.1348 229.588 57.8223C229.588 56.4961 228.234 55.6621 226.32 55.6621ZM224.707 63.5508H227.961V60.8164C227.462 60.9463 226.908 61.0078 226.32 61.0078C225.746 61.0078 225.199 60.9463 224.707 60.8301V63.5508ZM235.098 55.1016L234.975 62.1426H233.621L233.498 55.1016H235.098ZM234.305 65.0957C233.771 65.0957 233.32 64.6582 233.334 64.125C233.32 63.5918 233.771 63.1543 234.305 63.1543C234.824 63.1543 235.275 63.5918 235.275 64.125C235.275 64.6582 234.824 65.0957 234.305 65.0957Z" fill="white"/>
<path d="M111.805 318.861C151.897 318.861 184.398 315.617 184.398 311.615C184.398 307.613 151.897 304.369 111.805 304.369C71.7126 304.369 39.2114 307.613 39.2114 311.615C39.2114 315.617 71.7126 318.861 111.805 318.861Z" fill="#E6E6E6"/>
</svg>
