<svg width="18" height="18" viewBox="0 0 18 18" fill="none" xmlns="http://www.w3.org/2000/svg">
<path fill-rule="evenodd" clip-rule="evenodd" d="M9.00016 17.1666C13.5105 17.1666 17.1668 13.5103 17.1668 8.99998C17.1668 4.48965 13.5105 0.833313 9.00016 0.833313C4.48984 0.833313 0.833496 4.48965 0.833496 8.99998C0.833496 13.5103 4.48984 17.1666 9.00016 17.1666ZM5.86541 5.86511C6.09322 5.6373 6.46256 5.6373 6.69037 5.86511L9.00011 8.17485L11.3099 5.86511C11.5377 5.6373 11.907 5.6373 12.1348 5.86511C12.3626 6.09291 12.3626 6.46226 12.1348 6.69007L9.82507 8.99981L12.1348 11.3096C12.3626 11.5374 12.3626 11.9067 12.1348 12.1345C11.907 12.3623 11.5377 12.3623 11.3099 12.1345L9.00011 9.82477L6.69037 12.1345C6.46256 12.3623 6.09322 12.3623 5.86541 12.1345C5.6376 11.9067 5.6376 11.5374 5.86541 11.3096L8.17515 8.99981L5.86541 6.69007C5.6376 6.46226 5.6376 6.09291 5.86541 5.86511Z" fill="#AAAAAA"/>
</svg>
