<svg width="22" height="19" viewBox="0 0 22 17" fill="none" xmlns="http://www.w3.org/2000/svg">
<path d="M9.54998 8.96484C10.5994 8.96484 10.999 8.52279 10.999 7.42314C10.999 6.32349 10.5994 5.87821 9.54998 5.87821C8.50061 5.87821 8.10096 6.32349 8.10096 7.42314C8.10096 8.52279 8.50061 8.96484 9.54998 8.96484Z" fill="#AAAAAA"/>
<path fill-rule="evenodd" clip-rule="evenodd" d="M18.1 7.42313C18.1058 10.4007 14.05 13.843 9.55 13.843C5.05 13.843 0.994138 10.4007 1.00001 7.42313C1.38363 4.59411 5.05 1 9.55 1C14.05 1 17.7164 4.59406 18.1 7.42313ZM5.86897 10.2315C4.21192 8.71516 4.18196 6.10809 5.80914 4.55971C7.90451 2.56581 11.1955 2.56581 13.2909 4.55971C14.918 6.10809 14.8881 8.71516 13.231 10.2315C11.1505 12.1354 7.94951 12.1354 5.86897 10.2315Z" fill="#AAAAAA"/>
<path d="M9.54998 8.96484C10.5994 8.96484 10.999 8.52279 10.999 7.42314C10.999 6.32349 10.5994 5.87821 9.54998 5.87821C8.50061 5.87821 8.10096 6.32349 8.10096 7.42314C8.10096 8.52279 8.50061 8.96484 9.54998 8.96484Z" stroke="#AAAAAA" stroke-width="1.5" stroke-linecap="round" stroke-linejoin="round"/>
<path fill-rule="evenodd" clip-rule="evenodd" d="M18.1 7.42313C18.1058 10.4007 14.05 13.843 9.55 13.843C5.05 13.843 0.994138 10.4007 1.00001 7.42313C1.38363 4.59411 5.05 1 9.55 1C14.05 1 17.7164 4.59406 18.1 7.42313ZM5.86897 10.2315C4.21192 8.71516 4.18196 6.10809 5.80914 4.55971C7.90451 2.56581 11.1955 2.56581 13.2909 4.55971C14.918 6.10809 14.8881 8.71516 13.231 10.2315C11.1505 12.1354 7.94951 12.1354 5.86897 10.2315Z" stroke="#AAAAAA" stroke-width="1.5" stroke-linecap="round" stroke-linejoin="round"/>
</svg>
