<svg width="22" height="17" viewBox="0 0 22 17" fill="none" xmlns="http://www.w3.org/2000/svg">
<path d="M7.98325 10.0176C8.42387 10.4904 9.04326 10.6147 9.64996 10.6147C9.85894 10.6147 10.0694 10.6 10.2736 10.5613L7.4511 8.36472C7.45586 8.96071 7.56494 9.56871 7.98325 10.0176Z" fill="#AAAAAA"/>
<path d="M9.64997 1.1499C7.19932 1.1499 4.99422 2.12713 3.35578 3.47063L3.92862 3.97185L4.55504 4.43422L5.30248 5.00387L5.90911 5.45962L6.49135 5.94203C8.29959 4.28485 11.0896 4.30515 12.8738 6.00294C14.185 7.25062 14.1623 9.35407 12.8247 10.5781C12.7657 10.6321 12.6446 10.7348 12.6446 10.7348L15.9827 13.313C16.0143 13.2889 16.0456 13.2647 16.0768 13.2403C17.7457 11.9346 18.9535 10.1349 18.95 8.32156C18.9499 8.28835 18.9476 8.25518 18.9432 8.22227C18.7182 6.56299 17.5663 4.80073 15.9442 3.47061C14.3057 2.12712 12.1006 1.1499 9.64997 1.1499Z" fill="#AAAAAA"/>
<path d="M3.22315 13.2403C4.91577 14.5645 7.21432 15.4929 9.64997 15.4929C11.5358 15.4929 13.3394 14.9363 14.8432 14.0705L11.4441 11.4556C9.80151 12.1314 7.85303 11.8389 6.47527 10.5781C5.45432 9.64386 5.1994 8.19728 5.71892 7.00994L2.3317 4.43422C1.25962 5.59337 0.530845 6.93864 0.356784 8.22225C0.352321 8.25517 0.350049 8.28834 0.349984 8.32155C0.34641 10.1349 1.55421 11.9346 3.22315 13.2403Z" fill="#AAAAAA"/>
<path fill-rule="evenodd" clip-rule="evenodd" d="M1.08776 0.140915C0.792772 -0.0870274 0.368857 -0.0326793 0.140915 0.262304C-0.0870274 0.557288 -0.0326793 0.981203 0.262305 1.20915L20.0622 16.5091C20.3572 16.737 20.7811 16.6827 21.0091 16.3877C21.237 16.0927 21.1827 15.6688 20.8877 15.4409L11.8472 8.45504C11.8484 8.411 11.8489 8.36698 11.8489 8.32304C11.8489 7.71369 11.7446 7.08767 11.3175 6.62779C10.8773 6.15388 10.258 6.02811 9.64996 6.02811C9.37428 6.02811 9.09627 6.05397 8.83369 6.12641L1.08776 0.140915ZM8.83369 6.12641L11.8472 8.45504C11.8346 8.93308 11.7483 9.41329 11.4832 9.80769L7.7765 6.8999C7.83495 6.80425 7.90312 6.71315 7.98243 6.62777C8.22303 6.36875 8.51715 6.21373 8.83369 6.12641Z" fill="#AAAAAA"/>
<path d="M7.98243 6.62777C7.90312 6.71315 7.83495 6.80425 7.7765 6.8999L11.4832 9.80769C11.7483 9.41329 11.8346 8.93308 11.8472 8.45504L8.83369 6.12641C8.51715 6.21373 8.22303 6.36875 7.98243 6.62777Z" fill="#AAAAAA"/>
</svg>
