<svg width="21" height="21" viewBox="0 0 21 21" fill="none" xmlns="http://www.w3.org/2000/svg">
<path d="M16.4844 11.0952H4.12902L2.00053 18.1902L16.4844 11.0952ZM4.1291 9.09524H16.4849L2.00053 2L4.1291 9.09524ZM0.084874 2.5747C-0.232522 1.51671 0.367845 0.401745 1.42583 0.0843493C1.90842 -0.0604281 2.42788 -0.0177263 2.88035 0.203918L19.4059 8.29902C20.3978 8.78494 20.808 9.98298 20.3221 10.9749C20.1269 11.3736 19.8045 11.6959 19.4059 11.8912L2.88035 19.9863C1.8884 20.4722 0.690355 20.062 0.204443 19.07C-0.017201 18.6176 -0.0599024 18.0981 0.0848752 17.6155L2.341 10.0951L0.084874 2.5747Z" fill="#787878"/>
</svg>
