<svg width="24" height="24" viewBox="0 0 24 24" fill="none" xmlns="http://www.w3.org/2000/svg">
<g clip-path="url(#clip0_2372_7631)">
<path d="M16.2876 10.29L12.4076 14.17V5C12.4076 4.45 11.9576 4 11.4076 4C10.8576 4 10.4076 4.45 10.4076 5V14.17L6.52756 10.29C6.34058 10.103 6.08698 9.99798 5.82256 9.99798C5.55813 9.99798 5.30453 10.103 5.11756 10.29C4.93058 10.477 4.82554 10.7306 4.82554 10.995C4.82554 11.2594 4.93058 11.513 5.11756 11.7L10.7076 17.29C10.8001 17.3827 10.91 17.4563 11.0309 17.5064C11.1519 17.5566 11.2816 17.5824 11.4126 17.5824C11.5435 17.5824 11.6732 17.5566 11.7942 17.5064C11.9152 17.4563 12.025 17.3827 12.1176 17.29L17.7076 11.7C17.8003 11.6075 17.8738 11.4976 17.924 11.3766C17.9742 11.2557 18 11.126 18 10.995C18 10.864 17.9742 10.7343 17.924 10.6134C17.8738 10.4924 17.8003 10.3825 17.7076 10.29C17.3176 9.91 16.6776 9.9 16.2876 10.29ZM16.4076 19H6.40756C5.85756 19 5.40756 19.45 5.40756 20C5.40756 20.55 5.85756 21 6.40756 21H16.4076C16.9576 21 17.4076 20.55 17.4076 20C17.4076 19.45 16.9576 19 16.4076 19Z" fill="#787878"/>
</g>
<defs>
<clipPath id="clip0_2372_7631">
<rect width="24" height="24" fill="white" transform="matrix(0 -1 1 0 0 24)"/>
</clipPath>
</defs>
</svg>
