<svg width="26" height="26" viewBox="0 0 26 26" fill="none" xmlns="http://www.w3.org/2000/svg">
<path d="M22.75 13C22.75 18.3848 18.3848 22.75 13 22.75C7.61522 22.75 3.25 18.3848 3.25 13C3.25 7.61522 7.61522 3.25 13 3.25C18.3848 3.25 22.75 7.61522 22.75 13Z" fill="#F4F5F9"/>
<path fill-rule="evenodd" clip-rule="evenodd" d="M12.9999 4.17855C8.12792 4.17855 4.17843 8.12804 4.17843 13C4.17843 17.8719 8.12792 21.8214 12.9999 21.8214C17.8718 21.8214 21.8213 17.8719 21.8213 13C21.8213 8.12804 17.8718 4.17855 12.9999 4.17855ZM2.32129 13C2.32129 7.10237 7.10225 2.32141 12.9999 2.32141C18.8975 2.32141 23.6784 7.10237 23.6784 13C23.6784 18.8976 18.8975 23.6786 12.9999 23.6786C7.10225 23.6786 2.32129 18.8976 2.32129 13Z" fill="#E6E6E6"/>
</svg>
